Inception *2010* [BluRay][1080p][ENG, POL]

General information:
Country: USA, UK 
Release: 8 July 2010
Genre: Action, Crime, Mystery, Sci-Fi, Thriller 
Director: Christopher Nolan
Screenplay: Christopher Nolan
Original Music: Hans Zimmer 
Cinematography by: Wally Pfister
Duration: 2h 28mn
Language: English, Polish
Subtitles: English, Polish
Rating: 8.6/10 - 45223 votes 

Cast:
Leonardo DiCaprio  ...  Cobb  
Joseph Gordon-Levitt  ...  Arthur  
Ellen Page  ...  Ariadne  
Tom Hardy  ...  Eames  
Ken Watanabe  ...  Saito  
Dileep Rao  ...  Yusuf  
Cillian Murphy  ...  Robert Fischer  
Tom Berenger  ...  Peter Browning  
Marion Cotillard  ...  Mal  
Pete Postlethwaite  ...  Maurice Fischer  
Michael Caine  ...  Miles  
Lukas Haas  ...  Nash  
Tai-Li Lee  ...  Tadashi  
Claire Geare  ...  Phillipa (3 years)  
Magnus Nolan  ...  James (20 months)  

Plot:
In a world where technology exists to enter the human mind through dream invasion, a highly skilled thief is given a final chance at redemption which involves executing his toughest job till date, Inception. 

Specifications:
General
Format                           : Matroska
Overall bit rate                 : 7 180 Kbps
Writing library                  : libebml v1.0.0 + libmatroska v1.0.0

Video
Format                           : AVC
Format/Info                      : Advanced Video Codec
Format profile                   : High@L4.1
Format settings, CABAC           : Yes
Format settings, ReFrames        : 3 frames
Format settings, GOP             : M=4, N=29
Muxing mode                      : Container profile=Unknown@4.1
Codec ID                         : V_MPEG4/ISO/AVC
Bit rate                         : 6 180 Kbps
Width                            : 1 920 pixels
Height                           : 1 080 pixels
Display aspect ratio             : 16:9
Frame rate                       : 23.976 fps

Audio 1
Format                           : AC-3
Format/Info                      : Audio Coding 3
Mode extension                   : CM (complete main)
Codec ID                         : A_AC3
Bit rate mode                    : Constant
Bit rate                         : 640 Kbps
Channel(s)                       : 6 channels
Channel positions                : Front: L C R, Side: L R, LFE
Sampling rate                    : 48.0 KHz
Stream size                      : 678 MiB (9%)
Title                            : English

Audio 2
Format                           : AC-3
Format/Info                      : Audio Coding 3
Mode extension                   : CM (complete main)
Codec ID                         : A_AC3
Bit rate mode                    : Constant
Bit rate                         : 384 Kbps
Channel(s)                       : 6 channels
Channel positions                : Front: L C R, Side: L R, LFE
Sampling rate                    : 48.0 KHz
Stream size                      : 407 MiB (5%)
Title                            : Polish
Language                         : Polish

Text 1
Format                           : UTF-8
Codec ID                         : S_TEXT/UTF8
Codec ID/Info                    : UTF-8 Plain Text
Title                            : English

Text 2
Format                           : UTF-8
Codec ID                         : S_TEXT/UTF8
Codec ID/Info                    : UTF-8 Plain Text
Title                            : Polish
Language                         : Polish
